Normalized EMG Linear Envelopes
nRows=234
nColumns=4

endheader
time	 med_gas_r	  soleus_r	 tib_ant_r	
3.42641	  0.006692	  0.018979	  0.001227	
3.45968	  0.006644	  0.020248	  0.001233	
3.49294	  0.006573	  0.021493	  0.001239	
3.52621	  0.006470	  0.022636	  0.001244	
3.55948	  0.006359	  0.023618	  0.001250	
3.59274	  0.006280	  0.024412	  0.001260	
3.62601	  0.006257	  0.025006	  0.001276	
3.65927	  0.006285	  0.025364	  0.001301	
3.69254	  0.006337	  0.025425	  0.001335	
3.72581	  0.006387	  0.025137	  0.001376	
3.75907	  0.006417	  0.024510	  0.001417	
3.79234	  0.006420	  0.023619	  0.001455	
3.8256	  0.006391	  0.022576	  0.001485	
3.85887	  0.006333	  0.021493	  0.001506	
3.89214	  0.006257	  0.020465	  0.001514	
3.9254	  0.006182	  0.019568	  0.001512	
3.95867	  0.006132	  0.018849	  0.001502	
3.99194	  0.006127	  0.018316	  0.001484	
4.0252	  0.006188	  0.017940	  0.001462	
4.05847	  0.006331	  0.017686	  0.001437	
4.09173	  0.006565	  0.017547	  0.001411	
4.125	  0.006877	  0.017544	  0.001387	
4.15827	  0.007221	  0.017690	  0.001365	
4.19153	  0.007532	  0.017954	  0.001345	
4.2248	  0.007750	  0.018266	  0.001326	
4.25806	  0.007848	  0.018557	  0.001310	
4.29133	  0.007829	  0.018811	  0.001298	
4.3246	  0.007715	  0.019058	  0.001295	
4.35786	  0.007530	  0.019342	  0.001300	
4.39113	  0.007302	  0.019678	  0.001311	
4.4244	  0.007066	  0.020046	  0.001323	
4.45766	  0.006855	  0.020402	  0.001331	
4.49093	  0.006682	  0.020697	  0.001334	
4.52419	  0.006532	  0.020898	  0.001333	
4.55746	  0.006378	  0.020985	  0.001330	
4.59073	  0.006211	  0.020950	  0.001328	
4.62399	  0.006065	  0.020788	  0.001326	
4.65726	  0.005996	  0.020491	  0.001331	
4.69052	  0.006054	  0.020059	  0.001349	
4.72379	  0.006248	  0.019506	  0.001391	
4.75706	  0.006546	  0.018878	  0.001462	
4.79032	  0.006894	  0.018243	  0.001565	
4.82359	  0.007240	  0.017685	  0.001697	
4.85685	  0.007543	  0.017288	  0.001848	
4.89012	  0.007773	  0.017114	  0.001999	
4.92339	  0.007910	  0.017188	  0.002115	
4.95665	  0.007944	  0.017482	  0.002135	
4.98992	  0.007881	  0.017919	  0.001975	
5.02319	  0.007739	  0.018395	  0.001529	
5.05645	  0.007534	  0.018822	  0.000682	
5.08972	  0.007277	  0.019147	 -0.000674	
5.12298	  0.006971	  0.019360	 -0.002614	
5.15625	  0.006632	  0.019465	 -0.005145	
5.18952	  0.006294	  0.019458	 -0.008136	
5.22278	  0.006017	  0.019336	 -0.011221	
5.25605	  0.005861	  0.019138	 -0.013709	
5.28931	  0.005877	  0.019003	 -0.014518	
5.32258	  0.006103	  0.019206	 -0.012142	
5.35585	  0.006597	  0.020147	 -0.004614	
5.38911	  0.007464	  0.022319	  0.010456	
5.42238	  0.008863	  0.026304	  0.035654	
5.45565	  0.010957	  0.032768	  0.073159	
5.48891	  0.013831	  0.042385	  0.123874	
5.52218	  0.017404	  0.055626	  0.186688	
5.55544	  0.021399	  0.072496	  0.258362	
5.58871	  0.025405	  0.092403	  0.334107	
5.62198	  0.029013	  0.114275	  0.408484	
5.65524	  0.031952	  0.136829	  0.476229	
5.68851	  0.034169	  0.158805	  0.532986	
5.72177	  0.035788	  0.179103	  0.576196	
5.75504	  0.036988	  0.196956	  0.605984	
5.78831	  0.037901	  0.212124	  0.625350	
5.82157	  0.038578	  0.224900	  0.639070	
5.85484	  0.039049	  0.235743	  0.651605	
5.8881	  0.039376	  0.244809	  0.665226	
5.92137	  0.039663	  0.251886	  0.679594	
5.95464	  0.040008	  0.256831	  0.692896	
5.9879	  0.040454	  0.259894	  0.703339	
6.02117	  0.040963	  0.261367	  0.709705	
6.05444	  0.041422	  0.260876	  0.710908	
6.0877	  0.041677	  0.257256	  0.705769	
6.12097	  0.041609	  0.249458	  0.693856	
6.15423	  0.041205	  0.237743	  0.676622	
6.1875	  0.040570	  0.224034	  0.657370	
6.22077	  0.039883	  0.211082	  0.639755	
6.25403	  0.039307	  0.201153	  0.626011	
6.2873	  0.038922	  0.195170	  0.616185	
6.32056	  0.038711	  0.192693	  0.608528	
6.35383	  0.038586	  0.192514	  0.600559	
6.3871	  0.038439	  0.193431	  0.590386	
6.42036	  0.038205	  0.194776	  0.577969	
6.45363	  0.037898	  0.196425	  0.565661	
6.4869	  0.037609	  0.198414	  0.557384	
6.52016	  0.037466	  0.200638	  0.556727	
6.55343	  0.037577	  0.203003	  0.565166	
6.58669	  0.037981	  0.205785	  0.581518	
6.61996	  0.038632	  0.209630	  0.602682	
6.65323	  0.039411	  0.215047	  0.624830	
6.68649	  0.040164	  0.221907	  0.644304	
6.71976	  0.040745	  0.229547	  0.658194	
6.75302	  0.041050	  0.237365	  0.664947	
6.78629	  0.041051	  0.245218	  0.664938	
6.81956	  0.040799	  0.253129	  0.660443	
6.85282	  0.040428	  0.260658	  0.654645	
6.88609	  0.040107	  0.266760	  0.650098	
6.91935	  0.039982	  0.270437	  0.647601	
6.95262	  0.040097	  0.271578	  0.646195	
6.98589	  0.040374	  0.271118	  0.644170	
7.01915	  0.040636	  0.270357	  0.640410	
7.05242	  0.040685	  0.270131	  0.635277	
7.08569	  0.040377	  0.270630	  0.630546	
7.11895	  0.039675	  0.271940	  0.628420	
7.15222	  0.038671	  0.274649	  0.630153	
7.18548	  0.037556	  0.279833	  0.635212	
7.21875	  0.036550	  0.288374	  0.641659	
7.25202	  0.035817	  0.300152	  0.647561	
7.28528	  0.035428	  0.313756	  0.652343	
7.31855	  0.035385	  0.326873	  0.657031	
7.35181	  0.035653	  0.337171	  0.663183	
7.38508	  0.036168	  0.343274	  0.671387	
7.41835	  0.036821	  0.345386	  0.680456	
7.45161	  0.037466	  0.345167	  0.687931	
7.48488	  0.037960	  0.344819	  0.691447	
7.51815	  0.038213	  0.345982	  0.690000	
7.55141	  0.038214	  0.349175	  0.684265	
7.58468	  0.038010	  0.353994	  0.675970	
7.61794	  0.037695	  0.359536	  0.666997	
7.65121	  0.037394	  0.364573	  0.658980	
7.68448	  0.037237	  0.367523	  0.653404	
7.71774	  0.037337	  0.366630	  0.651573	
7.75101	  0.037745	  0.360545	  0.653971	
7.78427	  0.038428	  0.349019	  0.659448	
7.81754	  0.039267	  0.333268	  0.665185	
7.85081	  0.040102	  0.315781	  0.667991	
7.88407	  0.040798	  0.299734	  0.666279	
7.91734	  0.041283	  0.288333	  0.661375	
7.9506	  0.041550	  0.284215	  0.657083	
7.98387	  0.041632	  0.288798	  0.657678	
8.01714	  0.041590	  0.301603	  0.665595	
8.0504	  0.041534	  0.319904	  0.680295	
8.08367	  0.041605	  0.339124	  0.698768	
8.11694	  0.041903	  0.354000	  0.717013	
8.1502	  0.042390	  0.360123	  0.731483	
8.18347	  0.042881	  0.355363	  0.739936	
8.21673	  0.043149	  0.340739	  0.741692	
8.25	  0.043071	  0.320254	  0.737498	
8.28327	  0.042692	  0.299446	  0.729114	
8.31653	  0.042157	  0.283093	  0.718779	
8.3498	  0.041602	  0.273321	  0.708703	
8.38306	  0.041085	  0.269286	  0.700608	
8.41633	  0.040601	  0.268503	  0.695259	
8.4496	  0.040104	  0.268651	  0.692228	
8.48286	  0.039528	  0.268561	  0.690253	
8.51613	  0.038814	  0.268000	  0.688173	
8.5494	  0.037964	  0.266966	  0.685787	
8.58266	  0.037091	  0.265312	  0.683879	
8.61593	  0.036380	  0.262796	  0.683334	
8.64919	  0.035994	  0.259149	  0.684081	
8.68246	  0.035975	  0.254089	  0.684811	
8.71573	  0.036230	  0.247571	  0.683607	
8.74899	  0.036591	  0.240262	  0.678880	
8.78226	  0.036895	  0.233623	  0.669961	
8.81552	  0.037016	  0.229182	  0.657351	
8.84879	  0.036878	  0.227558	  0.642749	
8.88206	  0.036465	  0.228225	  0.628587	
8.91532	  0.035825	  0.230287	  0.616791	
8.94859	  0.035062	  0.233446	  0.607381	
8.98185	  0.034295	  0.238158	  0.598205	
9.01512	  0.033622	  0.244810	  0.586490	
9.04839	  0.033098	  0.252672	  0.571163	
9.08165	  0.032734	  0.259569	  0.554020	
9.11492	  0.032508	  0.262636	  0.538762	
9.14819	  0.032381	  0.259797	  0.528778	
9.18145	  0.032315	  0.251074	  0.525441	
9.21472	  0.032282	  0.238864	  0.527982	
9.24798	  0.032258	  0.226947	  0.534642	
9.28125	  0.032214	  0.218874	  0.544013	
9.31452	  0.032118	  0.216794	  0.555582	
9.34778	  0.031974	  0.221171	  0.569139	
9.38105	  0.031838	  0.230996	  0.583472	
9.41431	  0.031803	  0.243880	  0.595411	
9.44758	  0.031925	  0.256120	  0.600296	
9.48085	  0.032163	  0.263359	  0.594034	
9.51411	  0.032363	  0.262068	  0.575435	
9.54738	  0.032318	  0.251016	  0.546943	
9.58065	  0.031860	  0.231635	  0.513076	
9.61391	  0.030927	  0.207015	  0.477921	
9.64718	  0.029578	  0.180464	  0.443710	
9.68044	  0.027969	  0.154644	  0.411089	
9.71371	  0.026314	  0.131524	  0.380045	
9.74698	  0.024825	  0.112504	  0.350290	
9.78024	  0.023640	  0.098284	  0.321086	
9.81351	  0.022759	  0.088605	  0.291333	
9.84677	  0.022013	  0.082335	  0.260210	
9.88004	  0.021129	  0.078008	  0.227865	
9.91331	  0.019866	  0.074438	  0.195423	
9.94657	  0.018157	  0.070967	  0.164290	
9.97984	  0.016142	  0.067306	  0.135342	
10.0131	  0.014081	  0.063246	  0.108703	
10.0464	  0.012210	  0.058567	  0.084201	
10.0796	  0.010653	  0.053156	  0.061973	
10.1129	  0.009427	  0.047135	  0.042633	
10.1462	  0.008494	  0.040849	  0.026894	
10.1794	  0.007808	  0.034752	  0.015085	
10.2127	  0.007327	  0.029267	  0.006970	
10.246	  0.007015	  0.024720	  0.001921	
10.2792	  0.006833	  0.021287	 -0.000803	
10.3125	  0.006733	  0.018983	 -0.001893	
10.3458	  0.006665	  0.017684	 -0.001930	
10.379	  0.006593	  0.017199	 -0.001387	
10.4123	  0.006506	  0.017354	 -0.000608	
10.4456	  0.006422	  0.018043	  0.000194	
10.4788	  0.006369	  0.019236	  0.000922	
10.5121	  0.006375	  0.020961	  0.001547	
10.5454	  0.006448	  0.023310	  0.002067	
10.5786	  0.006580	  0.026417	  0.002480	
10.6119	  0.006754	  0.030337	  0.002779	
10.6452	  0.006949	  0.034847	  0.002956	
10.6784	  0.007148	  0.039320	  0.003013	
10.7117	  0.007336	  0.042891	  0.002968	
10.745	  0.007502	  0.044896	  0.002850	
10.7782	  0.007630	  0.045237	  0.002692	
10.8115	  0.007698	  0.044342	  0.002520	
10.8448	  0.007675	  0.042731	  0.002346	
10.878	  0.007539	  0.040611	  0.002174	
10.9113	  0.007298	  0.037865	  0.002005	
10.9446	  0.006996	  0.034396	  0.001850	
10.9778	  0.006696	  0.030405	  0.001716	
11.0111	  0.006453	  0.026365	  0.001608	
11.0444	  0.006294	  0.022744	  0.001521	
11.0776	  0.006208	  0.019789	  0.001442	
11.1109	  0.006165	  0.017513	  0.001358	
11.1442	  0.006140	  0.015817	  0.001265	
11.1774	  0.006121	  0.014594	  0.001166	
